<svg xmlns="http://www.w3.org/2000/svg" width="40px" height="50px" viewBox="0 0 40 50">
  <path d="M4.42 49.97c-2.35-.4-4.34-3.13-4.37-6.01 0-.7 0-.78.2-1.03l.22-.27 2.81-.05 2.81-.05-.9-1.07C2.25 38.03.53 33.64.09 28.51-.05 27.1-.03 18 .1 17.68c.06-.13.22-.32.37-.42.25-.15.54-.17 3.41-.14 3.04.02 3.15.03 3.36.23.4.38.43 1.02.05 1.46l-.2.24H1.57v4.28c0 2.35.03 4.67.08 5.15.5 5.6 2.88 10.5 6.57 13.57l.67.56h15.05l.66-.56c3.7-3.07 6.07-7.96 6.58-13.57.04-.48.08-2.8.08-5.15v-4.28H14.87l-.2-.24a1.05 1.05 0 01.05-1.46c.22-.2.27-.2 8.79-.23 8.04-.02 8.59-.02 8.84.15.4.25.47.5.47 1.8v1.15h3.34c3.65 0 3.57 0 3.77.57.07.21.08 1.37.06 4.53-.03 4.87-.06 5.09-.76 6.88-1 2.56-2.65 4.27-4.88 5.06-.45.15-.89.2-2.31.24l-1.76.05-.35.64c-.6 1.1-1.42 2.27-2.34 3.36l-.89 1.05 3.76.03 3.76.03.22.27c.2.25.22.32.21 1.03a6.39 6.39 0 01-3.7 5.85c-.42.17-.97.18-13.37.19-7.1 0-13.03 0-13.16-.03zm25.84-2c1.2-.31 2.35-1.59 2.68-2.97l.1-.44H1.66l.1.44a4.23 4.23 0 002.59 2.95c.54.16 25.3.19 25.92.02zm3.52-12.56c1.85-.52 3.47-2.21 4.19-4.37.43-1.3.48-1.86.48-5.58v-3.38h-5.63v2.05h1.78c1.44 0 1.81.03 1.94.15.33.28.36.6.33 2.85-.03 1.99-.05 2.18-.23 2.78-.29.94-.57 1.5-1.09 2.14a4 4 0 01-3.1 1.56h-.63l-.17.55a12.29 12.29 0 01-.47 1.36c0 .13 2.07.04 2.6-.1zm-.07-4.08a3.46 3.46 0 001.33-1.72c.23-.61.24-.7.27-2.13l.03-1.5h-2.52v.8c0 .9-.12 2.32-.28 3.46l-.16 1.12-.05.33.48-.06a2.9 3.62 0 00.9-.3zm-11.85 9.02c-.18-.13-.37-.6-.37-.91 0-.14.1-.4.23-.57.18-.26.28-.31.55-.31.78 0 1.07 1.32.38 1.76-.25.16-.6.17-.79.03zm2.64-2.45c-.26-.18-.43-.5-.43-.82 0-.33.12-.57.8-1.58a16.22 16.22 0 002.63-8.27c.06-.96.08-1.09.27-1.32.42-.53 1.16-.22 1.27.53a18.23 18.23 0 01-3.33 10.81c-.61.8-.83.91-1.21.65zM10.72 18.84c-.27-.3-.34-.64-.24-1.03.1-.41.37-.64.75-.64.23 0 .34.07.51.3.3.42.3.87 0 1.28-.3.37-.75.42-1.02.1zm.8-3.7c-.24-.12-.42-.43-.47-.8-.03-.25 0-.41.17-.72.64-1.15.75-1.38.86-1.88.26-1.08.04-2.07-.71-3.3a5.35 5.35 0 01-.06-6c.44-.44 1.14-.14 1.24.52.04.26 0 .46-.23.98-.54 1.28-.47 2.05.32 3.36a6.43 6.43 0 01-.27 7.56c-.24.29-.6.41-.84.29zm8.67 0c-.24-.12-.5-.57-.5-.88 0-.15.12-.48.28-.75.73-1.28.96-2.07.86-3a4.74 4.74 0 00-.82-2.12 5.32 5.32 0 01-.88-2.36c-.15-1.2.17-2.68.76-3.46.32-.43.8-.47 1.1-.1.33.42.33.7-.01 1.5-.28.65-.3.78-.3 1.42 0 .8.05.96.65 1.98A6.3 6.3 0 0122.38 11c-.01 1.35-.44 2.62-1.25 3.7-.32.44-.64.58-.94.43zm-4.57-2.44c-.36-.45-.32-.9.17-1.67.5-.8.7-1.47.7-2.3 0-.88-.17-1.41-.83-2.57a5.33 5.33 0 01-.89-3c0-.9.22-1.8.6-2.48.43-.77.9-.89 1.32-.35.27.33.25.77-.08 1.56-.23.54-.28.76-.27 1.26 0 .73.15 1.19.7 2.07a6.4 6.4 0 01-.24 7.29c-.3.41-.4.48-.65.48-.22 0-.35-.07-.53-.29z"/>
</svg>
